# xmcd CD database file
#
# Track frame offsets:
#	150
#	23037
#	84052
#	139772
#	158647
#	185102
#
# Disc length: 3192 seconds
#
# Revision: 0
# Processed by: cddbd v1.5.1PL0 Copyright (c) Steve Scherf et al.
# Submitted via: CDex 1.51
#
DISCID=3f0c7606
DTITLE=Eric Bikales - Autumn Whispers-Winter Dreams (Moodtapes  MTCD103)
DYEAR=1989
DGENRE=New Age
TTITLE0=Autumn Whispers
TTITLE1=Mountain's Call
TTITLE2=Aspen's Song
TTITLE3=Season's Change
TTITLE4=Snoy Morning
TTITLE5=Winter Dreams
EXTD=YEAR: 1989
EXTT0=
EXTT1=
EXTT2=
EXTT3=
EXTT4=
EXTT5=
PLAYORDER=
